<svg xmlns="http://www.w3.org/2000/svg" viewBox="0 0 14.607 14.607">
  <defs>
    <style>
      .cls-1 {
        fill: #0e2459;
      }
    </style>
  </defs>
  <path id="_001-linkedin" data-name="001-linkedin" class="cls-1" d="M13.286,0H1.321A1.321,1.321,0,0,0,0,1.321V13.286a1.321,1.321,0,0,0,1.321,1.321H13.286a1.321,1.321,0,0,0,1.321-1.321V1.321A1.321,1.321,0,0,0,13.286,0ZM4.52,12.613A.385.385,0,0,1,4.136,13H2.5a.385.385,0,0,1-.385-.385V5.751A.385.385,0,0,1,2.5,5.367H4.136a.385.385,0,0,1,.385.385ZM3.317,4.72A1.555,1.555,0,1,1,4.872,3.165,1.555,1.555,0,0,1,3.317,4.72Zm9.757,7.924a.354.354,0,0,1-.354.354H10.964a.354.354,0,0,1-.354-.354V9.425c0-.48.141-2.1-1.255-2.1-1.082,0-1.3,1.111-1.346,1.61v3.712A.354.354,0,0,1,7.656,13h-1.7a.354.354,0,0,1-.354-.354V5.72a.354.354,0,0,1,.354-.354h1.7a.354.354,0,0,1,.354.354v.6a2.411,2.411,0,0,1,2.268-1.067c2.813,0,2.8,2.628,2.8,4.071v3.321Z" transform="translate(0)"/>
</svg>
