<svg id="email-filled-closed-envelope" xmlns="http://www.w3.org/2000/svg" viewBox="0 0 18.232 12.193">
  <defs>
    <style>
      .cls-1 {
        fill: #c9092e;
      }
    </style>
  </defs>
  <path id="Path_5" data-name="Path 5" class="cls-1" d="M9.139,108.674h0a.7.7,0,0,0,.383-.113l.03-.019.02-.013.347-.287,8.29-6.841a.1.1,0,0,0-.078-.04H.1a.094.094,0,0,0-.06.022l8.673,7.149A.679.679,0,0,0,9.139,108.674ZM0,102.331v10.14l6.213-5.019Zm12.026,5.155,6.207,4.988V102.365Zm-1.973,1.628a1.478,1.478,0,0,1-1.822,0l-1.423-1.174L0,113.441v.017a.1.1,0,0,0,.1.1H18.136a.1.1,0,0,0,.1-.1v-.016l-6.8-5.465Z" transform="translate(0 -101.362)"/>
</svg>
