<svg xmlns="http://www.w3.org/2000/svg" viewBox="0 0 13.93 20.221">
  <defs>
    <style>
      .cls-1 {
        fill: #c9092e;
      }
    </style>
  </defs>
  <g id="facebook-placeholder-for-locate-places-on-maps" transform="translate(-66.905)">
    <path id="Facebook_Places" class="cls-1" d="M80.506,5.033a6.3,6.3,0,0,0-.326-.809A6.928,6.928,0,0,0,66.9,6.273v.863c0,.036.012.36.03.521.252,2.013,1.84,4.152,3.026,6.165,1.276,2.157,2.6,4.278,3.912,6.4.809-1.384,1.615-2.786,2.406-4.134.215-.4.466-.791.681-1.169.144-.251.418-.5.544-.737,1.276-2.337,3.33-4.691,3.33-7.01V6.219A7.175,7.175,0,0,0,80.506,5.033ZM73.832,9.365a2.472,2.472,0,0,1-2.367-1.69,2.344,2.344,0,0,1-.066-.629V6.488a2.341,2.341,0,0,1,2.511-2.3,2.546,2.546,0,0,1,2.55,2.589A2.611,2.611,0,0,1,73.832,9.365Z"/>
  </g>
</svg>
