<svg xmlns="http://www.w3.org/2000/svg" viewBox="0 0 17.776 14.441">
  <defs>
    <style>
      .cls-1 {
        fill: #0e2459;
      }
    </style>
  </defs>
  <path id="Path_1" data-name="Path 1" class="cls-1" d="M60.359,108.87a10.411,10.411,0,0,0,15.974-8.8q0-.215-.009-.428a8.18,8.18,0,0,0,1.809-1.857,8.444,8.444,0,0,1-2.067.536h-.007l.006,0a3.87,3.87,0,0,0,1.589-2.027,12.681,12.681,0,0,1-1.773.739c-.171.057-.35.113-.535.165a3.653,3.653,0,0,0-6.224,3.322,11,11,0,0,1-7.5-3.79s-1.746,2.383,1.04,4.834a3.753,3.753,0,0,1-1.578-.47,3.471,3.471,0,0,0,2.887,3.626,3.342,3.342,0,0,1-1.611.067,3.6,3.6,0,0,0,3.357,2.551,7.016,7.016,0,0,1-5.364,1.533Z" transform="translate(-60.358 -96.041)"/>
</svg>
