<svg xmlns="http://www.w3.org/2000/svg" viewBox="0 0 13.727 13.718">
  <defs>
    <style>
      .cls-1 {
        fill: #c9092e;
      }
    </style>
  </defs>
  <g id="phone-receiver" transform="translate(0 -0.188)">
    <g id="Group_966" data-name="Group 966" transform="translate(0 0.188)">
      <path id="Path_4" data-name="Path 4" class="cls-1" d="M13.72,11.014a.663.663,0,0,1-.2.581l-1.933,1.918a1.088,1.088,0,0,1-.341.247,1.411,1.411,0,0,1-.414.131l-.087.007q-.073.007-.189.007a6.7,6.7,0,0,1-.894-.094,6.787,6.787,0,0,1-1.511-.465A12.685,12.685,0,0,1,6.12,12.234,15.114,15.114,0,0,1,3.708,10.2,15.923,15.923,0,0,1,2.022,8.282,13.667,13.667,0,0,1,.947,6.589a9.118,9.118,0,0,1-.61-1.41A7.478,7.478,0,0,1,.061,4.09,3.6,3.6,0,0,1,0,3.37q.015-.262.015-.291a1.412,1.412,0,0,1,.131-.414,1.089,1.089,0,0,1,.247-.341L2.327.391a.64.64,0,0,1,.465-.2A.542.542,0,0,1,3.127.3a1.01,1.01,0,0,1,.247.269l1.555,2.95A.707.707,0,0,1,5,4.024a.906.906,0,0,1-.247.465L4.042,5.2a.242.242,0,0,0-.051.094.359.359,0,0,0-.022.109,2.624,2.624,0,0,0,.262.7,6.4,6.4,0,0,0,.538.85A9.439,9.439,0,0,0,5.8,8.108,9.625,9.625,0,0,0,6.963,9.147a6.713,6.713,0,0,0,.85.545,2.259,2.259,0,0,0,.523.211l.182.036a.346.346,0,0,0,.094-.022.243.243,0,0,0,.094-.051l.828-.843a.89.89,0,0,1,.61-.232.759.759,0,0,1,.392.087h.015l2.8,1.657A.731.731,0,0,1,13.72,11.014Z" transform="translate(0 -0.188)"/>
    </g>
  </g>
</svg>
